<svg xmlns="http://www.w3.org/2000/svg" fill="none" width="1024" height="1024" viewBox="0 0 1024 1024">
    <mask id="a" width="1024" height="1024" x="0" y="0" fill="#000">
        <path fill="#fff" d="M0 0h1024v1024H0z"/>
        <path fill-rule="evenodd" d="M64 512a448 448 0 11896 0 448 448 0 01-896 0zm636.6 209.2a27.6 27.6 0 008-50.6c-118.4-71.7-265.1-88.4-436.2-49.6a27.5 27.5 0 00-14.3 45.9c6.8 7.2 17 10.3 26.8 8.1 156.3-35.3 289-20.9 394.5 43 6.3 3.8 14 5 21.2 3.2zm72.2-132.5a34.8 34.8 0 01-47.9 11.5c-120-73.9-303.2-95.3-445.3-52.1a34.9 34.9 0 01-20.2-66.7c162.3-49.3 364-25.4 502 59.4a34.9 34.9 0 0111.4 48zm-514-177c138-42.4 376.6-34.4 521.2 52.3 19.9 12 45.6 5.4 57.5-14.8a42.6 42.6 0 00-14.7-58c-166.5-99.9-430-109.3-588.5-60.7a42.6 42.6 0 00-17 71.8 41.7 41.7 0 0041.4 9.4z" clip-rule="evenodd"/>
    </mask>
    <path fill="#191414" fill-rule="evenodd" d="M64 512a448 448 0 11896 0 448 448 0 01-896 0zm636.6 209.2a27.6 27.6 0 008-50.6c-118.4-71.7-265.1-88.4-436.2-49.6a27.5 27.5 0 00-14.3 45.9c6.8 7.2 17 10.3 26.8 8.1 156.3-35.3 289-20.9 394.5 43 6.3 3.8 14 5 21.2 3.2zm72.2-132.5a34.8 34.8 0 01-47.9 11.5c-120-73.9-303.2-95.3-445.3-52.1a34.9 34.9 0 01-20.2-66.7c162.3-49.3 364-25.4 502 59.4a34.9 34.9 0 0111.4 48zm-514-177c138-42.4 376.6-34.4 521.2 52.3 19.9 12 45.6 5.4 57.5-14.8a42.6 42.6 0 00-14.7-58c-166.5-99.9-430-109.3-588.5-60.7a42.6 42.6 0 00-17 71.8 41.7 41.7 0 0041.4 9.4z" clip-rule="evenodd"/>
    <path fill="#caf264" d="M718 708.7l-54.6-33.5zm-9.4-38.1l33.2-54.7zM272.4 621l14.1 62.4zM252 640l61.1 19zm33 35.1l-14.1-62.4zm394.5 43l33.2-54.8zm45.5-117.8l-33.5 54.5.1.1zm47.9-11.5l45.3-45.2-57.4-57.4-42.4 69.1zm-493.2-40.6l14.8 62.3 2-.5 1.8-.6zm-41.4-23.9l-61.3 18.6zm21.2-42.8L240.8 420l-1.9.6-1.8.7zm502 59.4l-33.6 54.5h.1zm15.6 21.6l62.3-15zm-4.2 26.4L727.6 634l57.4 57.4 42.4-69.2zM780 464l28.9 57.1 103.6-52.3-99.5-59.7zm-521.3-52.4L240 350.5l-.4.1-.4.1zM780 464.1l-28.8-57.2-103.6 52.4L747 519zm57.6-14.9l-55.2-32.4zm-14.7-58l-33 54.8zm-588.5-60.7l18 61.5.4-.2h.4zm-16.9 71.8L173.7 449zM512 0A512 512 0 000 512h128c0-212 172-384 384-384zm512 512A512 512 0 00512 0v128c212 0 384 172 384 384zm-512 512a512 512 0 00512-512H896c0 212-172 384-384 384zM0 512a512 512 0 00512 512V896a384 384 0 01-384-384zm663.4 163.2a36 36 0 0122.3-16.2l29.8 124.5a92 92 0 0057-41.3zm12 50.1a36.4 36.4 0 01-12-50.1l109 67A91.6 91.6 0 00741.8 616zm-388.8-41.9c159.4-36.1 288.2-19 388.9 42l66.3-109.6c-136.1-82.3-300.8-98.6-483.5-57.2zM313 659a36.1 36.1 0 01-26.5 24.5l-28.2-124.8a91.9 91.9 0 00-67.5 62.2zm-8.2-35.8A36.5 36.5 0 01313 659l-122.2-38a91.5 91.5 0 0020.6 89.7zm-34-10.5c12.2-2.8 25.2 1.1 34 10.5l-93.4 87.5c22.5 24 55.8 34 87.6 26.9zm441.7 50.6c-123.5-74.8-274.3-88.5-441.7-50.6L299 737.5c145.2-32.9 259.8-17.7 347.3 35.2zm-26.8-4.2c9.1-2.2 18.8-.7 27 4.2l-66.5 109.4a92.2 92.2 0 0069.3 10.9zm5.8-4.2a98.8 98.8 0 00135.8-32.6l-109-67a29.2 29.2 0 0140-9.6zm-393.3-45.5C424 571.2 587.8 591 691.4 654.7l67-109c-136.6-84-338.8-107-497.4-58.9zM177 542.8a98.9 98.9 0 00117.5 67.6L265 485.8c15-3.5 30 5.2 34.5 19.9zm60.2-121.4a99 99 0 00-60.2 121.4l122.5-37.1a29 29 0 01-17.7 35.7zm557.8 64.8c-154.4-94.8-375.2-120.4-554-66l37 122.4c145.8-44.2 328.5-22 450 52.7zm44.4 61.3a98.9 98.9 0 00-44.5-61.3l-66.9 109.1a29.1 29.1 0 01-13.1-18zm-12 74.7a98.9 98.9 0 0012-74.7l-124.5 29.8a29.1 29.1 0 013.5-22zM727.6 634l90.6-90.5zM813 409c-83.7-50.2-190.2-75.5-291-83.5-101-8-203.6.8-282 24.9l37.5 122.3c59.6-18.3 145.4-26.7 234.3-19.6 89.2 7 174.4 29.1 235.3 65.7zm-4.2 112h.1L751.2 407h-.1zm-26.5-104.3a22.3 22.3 0 0130.5-7.6L747.1 519a105.7 105.7 0 00145.5-37.4zm7.6 29.2a21.4 21.4 0 01-7.6-29.2l110.3 64.8a106.6 106.6 0 00-37-145.4zM253 391.7c70-21.5 167-31 267.2-22.8 100.3 8.3 197.4 33.8 269.6 77.1l65.8-109.8c-94.3-56.5-212.2-85.6-324.9-94.8-112.8-9.3-226.7.8-315.2 28zm14.3-15.6a21.8 21.8 0 01-15.2 15.9l-35.7-123a106.2 106.2 0 00-73.7 77.8zm-6.2-20.5c5.7 5.4 8 13.2 6.2 20.5l-124.6-29.3c-8.7 37 3 76 30.9 102.2zm-22.1-4.9c7.8-2.5 16.3-.5 22 5L173.8 449c28 26.3 68 35.4 104.6 23.6z" mask="url(#a)"/>
</svg>
